<?xml version="1.0" standalone="no"?>
<!DOCTYPE svg PUBLIC "-//W3C//DTD SVG 20010904//EN"
 "http://www.w3.org/TR/2001/REC-SVG-20010904/DTD/svg10.dtd">
<svg version="1.0" xmlns="http://www.w3.org/2000/svg"
 width="326.000000pt" height="338.000000pt" viewBox="0 0 326.000000 338.000000"
 preserveAspectRatio="xMidYMid meet">

<g transform="translate(0.000000,338.000000) scale(0.100000,-0.100000)"
fill="#000000" stroke="none">
<path d="M1326 3159 c-52 -41 -24 -119 43 -119 46 0 71 24 71 68 0 33 -38 72
-70 72 -10 0 -29 -9 -44 -21z"/>
<path d="M1776 3148 c-23 -33 -20 -65 10 -95 20 -20 31 -24 57 -19 39 8 57 30
57 71 0 41 -27 65 -73 65 -26 0 -40 -6 -51 -22z"/>
<path d="M1585 3074 c-75 -81 43 -197 120 -119 36 35 35 96 -1 124 -38 30 -89
28 -119 -5z"/>
<path d="M1185 3046 c-31 -13 -55 -51 -55 -87 0 -31 53 -79 88 -79 38 0 79 32
87 69 9 41 -17 86 -56 100 -18 6 -32 11 -33 11 -1 -1 -15 -7 -31 -14z"/>
<path d="M882 3024 c-16 -11 -22 -25 -22 -53 0 -45 24 -71 66 -71 40 0 62 18
70 57 5 26 1 37 -19 57 -30 30 -62 33 -95 10z"/>
<path d="M2250 3023 c-54 -20 -66 -78 -25 -118 30 -30 54 -31 89 -4 19 15 26
30 26 54 0 49 -46 84 -90 68z"/>
<path d="M2043 3013 c-30 -6 -63 -49 -63 -84 0 -15 10 -40 23 -55 18 -21 32
-27 65 -27 48 0 65 11 82 53 13 32 2 78 -24 98 -15 13 -56 20 -83 15z"/>
<path d="M1429 2951 c-20 -20 -29 -39 -29 -61 0 -40 47 -90 85 -90 61 0 110
72 84 123 -32 62 -94 74 -140 28z"/>
<path d="M1844 2940 c-31 -12 -54 -49 -54 -86 0 -24 8 -39 31 -58 52 -44 113
-29 139 34 16 39 -1 85 -41 105 -31 17 -44 18 -75 5z"/>
<path d="M1083 2882 c-30 -5 -63 -48 -63 -84 0 -91 123 -120 165 -39 21 41 19
55 -10 89 -25 30 -52 40 -92 34z"/>
<path d="M790 2867 c-55 -28 -62 -108 -13 -147 30 -24 54 -25 92 -5 32 16 41
33 41 79 0 58 -69 100 -120 73z"/>
<path d="M1651 2794 c-28 -35 -26 -69 4 -99 49 -50 125 -19 125 50 0 72 -86
104 -129 49z"/>
<path d="M1343 2802 c-27 -4 -63 -47 -63 -74 0 -23 52 -78 74 -78 30 0 65 23
77 51 23 57 -24 111 -88 101z"/>
<path d="M2183 2776 c-22 -19 -28 -32 -28 -66 0 -34 6 -47 28 -66 16 -13 41
-24 57 -24 16 0 41 11 57 24 39 34 39 98 0 132 -16 13 -41 24 -57 24 -16 0
-41 -11 -57 -24z"/>
<path d="M2380 2775 c-45 -48 -20 -128 44 -140 84 -16 138 72 85 139 -29 36
-95 37 -129 1z"/>
<path d="M502 2750 c-46 -43 -15 -120 48 -120 63 0 94 77 48 120 -12 11 -34
20 -48 20 -14 0 -36 -9 -48 -20z"/>
<path d="M2595 2725 c-14 -13 -25 -35 -25 -48 0 -63 89 -91 129 -41 27 35 26
55 -4 88 -30 33 -68 34 -100 1z"/>
<path d="M1990 2710 c-45 -45 -13 -130 50 -130 38 0 80 39 80 75 0 61 -87 98
-130 55z"/>
<path d="M727 2670 c-9 -6 -24 -25 -33 -41 -45 -89 84 -170 146 -91 25 31 26
83 2 112 -20 25 -87 36 -115 20z"/>
<path d="M982 2657 c-12 -13 -22 -36 -22 -51 0 -34 41 -76 75 -76 36 0 75 42
75 80 0 65 -83 95 -128 47z"/>
<path d="M469 2572 c-31 -16 -34 -21 -37 -68 -3 -46 0 -54 24 -73 35 -27 76
-27 110 2 21 19 27 32 27 66 0 71 -58 106 -124 73z"/>
<path d="M2282 2517 c-37 -39 -28 -98 19 -122 34 -18 69 -8 93 27 23 32 20 65
-9 93 -31 32 -74 33 -103 2z"/>
<path d="M2475 2515 c-56 -55 -16 -145 63 -145 51 0 84 34 84 85 0 78 -92 116
-147 60z"/>
<path d="M2701 2479 c-35 -14 -50 -39 -51 -80 0 -76 97 -112 148 -54 57 67
-16 168 -97 134z"/>
<path d="M734 2456 c-75 -33 -51 -140 31 -140 80 0 106 102 34 139 -33 18 -26
18 -65 1z"/>
<path d="M225 2375 c-39 -38 -32 -86 16 -110 34 -18 71 -7 94 29 19 29 13 58
-18 86 -28 27 -63 25 -92 -5z"/>
<path d="M455 2354 c-53 -57 -15 -144 62 -144 42 1 63 13 81 47 18 33 14 59
-14 92 -35 42 -93 44 -129 5z"/>
<path d="M2860 2350 c-27 -27 -25 -66 5 -95 29 -30 68 -32 95 -5 26 26 26 81
2 103 -25 23 -78 21 -102 -3z"/>
<path d="M2502 2250 c-31 -29 -31 -93 0 -114 34 -24 75 -20 105 10 65 66 -37
167 -105 104z"/>
<path d="M235 2178 c-69 -82 34 -184 119 -117 21 16 26 29 26 63 0 85 -91 119
-145 54z"/>
<path d="M2694 2195 c-12 -8 -27 -28 -34 -45 -37 -89 90 -160 150 -83 61 78
-36 185 -116 128z"/>
<path d="M545 2168 c-53 -28 -62 -93 -19 -127 35 -28 69 -26 99 4 40 39 32 96
-16 120 -33 18 -38 18 -64 3z"/>
<path d="M2875 2088 c-32 -19 -44 -40 -45 -80 0 -93 118 -118 158 -35 19 40 6
85 -31 108 -36 22 -54 23 -82 7z"/>
<path d="M312 2000 c-48 -45 -33 -125 28 -150 27 -11 36 -11 66 3 57 28 70 87
28 136 -32 38 -87 43 -122 11z"/>
<path d="M90 1947 c-19 -10 -26 -21 -28 -53 -5 -62 45 -95 101 -65 44 24 43
96 -2 120 -25 14 -40 14 -71 -2z"/>
<path d="M2653 1942 c-52 -8 -71 -91 -30 -130 47 -44 127 -11 127 52 0 57 -37
87 -97 78z"/>
<path d="M3005 1916 c-27 -20 -27 -90 0 -110 26 -20 65 -20 93 0 16 11 22 25
22 54 0 29 -6 43 -22 54 -28 20 -68 20 -93 2z"/>
<path d="M432 1817 c-30 -32 -30 -90 0 -111 79 -56 171 42 103 109 -31 32 -74
33 -103 2z"/>
<path d="M2775 1805 c-33 -32 -34 -93 -2 -123 51 -47 115 -34 142 31 35 83
-76 157 -140 92z"/>
<path d="M167 1779 c-28 -16 -49 -73 -38 -101 21 -56 85 -77 135 -44 41 26 46
84 12 129 -17 22 -84 32 -109 16z"/>
<path d="M2905 1648 c-49 -43 -29 -139 32 -151 40 -7 91 17 103 49 33 86 -66
161 -135 102z"/>
<path d="M279 1601 c-47 -48 -32 -115 31 -141 55 -23 120 24 120 85 0 38 -50
85 -90 85 -22 0 -41 -9 -61 -29z"/>
<path d="M2644 1577 c-50 -43 -29 -116 37 -132 19 -5 34 0 57 20 48 40 41 94
-15 123 -32 17 -49 15 -79 -11z"/>
<path d="M66 1468 c-49 -70 41 -150 104 -93 25 23 26 76 2 98 -28 25 -87 22
-106 -5z"/>
<path d="M446 1471 c-10 -11 -18 -36 -18 -56 0 -44 26 -75 63 -75 41 0 58 9
75 42 16 31 12 62 -14 91 -21 24 -84 23 -106 -2z"/>
<path d="M3009 1460 c-28 -16 -43 -64 -28 -92 16 -31 28 -38 66 -38 38 0 73
32 73 67 0 50 -68 88 -111 63z"/>
<path d="M2745 1415 c-28 -27 -34 -88 -12 -116 35 -46 88 -50 128 -10 58 59
24 151 -56 151 -25 0 -44 -8 -60 -25z"/>
<path d="M196 1329 c-34 -40 -33 -70 3 -108 42 -45 105 -41 134 9 23 39 21 63
-9 99 -20 25 -34 31 -64 31 -30 0 -44 -6 -64 -31z"/>
<path d="M2543 1234 c-64 -64 29 -161 105 -108 17 12 22 25 22 59 0 34 -5 47
-22 59 -34 24 -75 20 -105 -10z"/>
<path d="M377 1230 c-32 -26 -41 -62 -23 -103 20 -48 65 -66 112 -44 57 28 70
87 28 136 -31 37 -78 42 -117 11z"/>
<path d="M2819 1221 c-43 -44 -37 -111 12 -136 40 -21 63 -19 98 11 25 20 31
34 31 64 0 30 -6 44 -31 64 -40 34 -74 33 -110 -3z"/>
<path d="M574 1147 c-70 -60 7 -167 86 -121 47 28 53 82 14 119 -34 31 -65 32
-100 2z"/>
<path d="M2621 1069 c-35 -14 -50 -39 -51 -80 0 -56 28 -84 85 -84 57 0 85 28
85 84 -1 43 -16 66 -54 81 -32 12 -33 12 -65 -1z"/>
<path d="M210 1030 c-27 -27 -26 -71 3 -98 29 -28 67 -28 95 -2 46 43 15 120
-48 120 -17 0 -39 -9 -50 -20z"/>
<path d="M2856 1009 c-34 -27 -36 -81 -4 -103 50 -35 118 -5 118 52 0 33 -8
45 -37 61 -31 16 -47 14 -77 -10z"/>
<path d="M379 941 c-36 -36 -37 -70 -3 -110 37 -44 91 -44 129 1 71 84 -48
186 -126 109z"/>
<path d="M2355 945 c-14 -13 -25 -36 -25 -50 0 -58 78 -95 128 -59 32 22 32
96 0 118 -33 23 -75 20 -103 -9z"/>
<path d="M613 913 c-50 -10 -81 -94 -50 -134 32 -42 90 -50 131 -18 21 16 26
29 26 63 0 40 -26 86 -50 86 -4 0 -14 2 -22 4 -7 2 -23 1 -35 -1z"/>
<path d="M803 888 c-49 -24 -50 -98 -1 -132 30 -21 50 -20 82 5 37 29 37 89 0
118 -29 23 -48 25 -81 9z"/>
<path d="M2614 855 c-33 -22 -48 -68 -34 -97 24 -44 42 -58 80 -58 78 0 118
87 65 144 -28 30 -78 35 -111 11z"/>
<path d="M2343 756 c-22 -19 -28 -32 -28 -65 0 -55 29 -83 85 -85 82 -2 119
86 61 145 -37 36 -79 38 -118 5z"/>
<path d="M2080 728 c-62 -66 31 -164 103 -108 33 26 38 87 9 113 -27 25 -87
22 -112 -5z"/>
<path d="M1099 699 c-15 -6 -32 -23 -39 -39 -36 -86 80 -145 134 -68 22 31 20
52 -6 82 -28 30 -55 37 -89 25z"/>
<path d="M510 673 c-55 -20 -68 -87 -24 -122 15 -12 35 -21 46 -21 27 0 68 44
68 73 0 44 -51 84 -90 70z"/>
<path d="M700 649 c-88 -32 -64 -169 30 -169 92 0 119 125 35 164 -18 9 -35
16 -37 15 -1 0 -14 -5 -28 -10z"/>
<path d="M875 635 c-43 -42 -31 -115 21 -140 38 -18 59 -14 98 16 20 16 26 29
26 60 0 53 -35 89 -85 89 -25 0 -44 -8 -60 -25z"/>
<path d="M2581 641 c-51 -39 -20 -132 43 -131 46 1 81 55 64 99 -18 51 -65 64
-107 32z"/>
<path d="M1762 607 c-30 -32 -30 -90 0 -111 54 -38 128 -3 128 60 0 65 -84 98
-128 51z"/>
<path d="M1410 590 c-44 -44 -6 -130 58 -130 38 0 72 37 72 78 0 43 -30 72
-75 72 -22 0 -43 -8 -55 -20z"/>
<path d="M2028 564 c-55 -29 -65 -94 -22 -138 47 -46 118 -30 144 34 17 42 -2
88 -46 106 -40 17 -42 17 -76 -2z"/>
<path d="M2285 555 c-54 -53 -16 -145 60 -145 49 0 85 36 85 85 0 49 -36 85
-85 85 -25 0 -44 -8 -60 -25z"/>
<path d="M1235 485 c-52 -51 -16 -145 55 -145 42 0 67 15 85 51 18 33 14 55
-16 93 -28 36 -90 36 -124 1z"/>
<path d="M1621 454 c-40 -50 -23 -116 35 -140 30 -13 38 -13 65 1 40 21 64 76
48 108 -24 45 -41 57 -85 57 -34 0 -47 -5 -63 -26z"/>
<path d="M1045 415 c-31 -30 -33 -82 -4 -119 29 -37 99 -37 128 0 35 44 25
106 -20 129 -41 22 -77 18 -104 -10z"/>
<path d="M852 377 c-61 -65 22 -153 96 -101 15 11 22 25 22 50 0 67 -73 99
-118 51z"/>
<path d="M1892 377 c-31 -33 -30 -90 3 -122 59 -60 156 -4 141 80 -4 19 -17
41 -29 50 -33 23 -90 19 -115 -8z"/>
<path d="M2213 378 c-30 -15 -48 -60 -33 -87 28 -53 80 -61 120 -18 27 28 25
63 -5 92 -26 27 -47 30 -82 13z"/>
<path d="M1461 324 c-52 -66 2 -155 84 -140 62 12 86 87 44 140 -16 21 -29 26
-64 26 -35 0 -48 -5 -64 -26z"/>
<path d="M1315 248 c-49 -26 -58 -69 -24 -112 41 -52 119 -18 119 52 0 26 -7
36 -32 52 -38 23 -37 23 -63 8z"/>
<path d="M1772 240 c-26 -11 -44 -52 -35 -77 18 -53 83 -72 116 -35 20 22 22
85 4 100 -19 16 -60 22 -85 12z"/>
</g>
</svg>
