
<svg xmlns="http://www.w3.org/2000/svg" viewBox="0 0 200 200" width="200" height="200">
  <!-- White background -->
  <rect width="200" height="200" fill="white" rx="10"/>
  
  <!-- Dotted torus pattern -->
  <g transform="translate(100,100)">
    <!-- Outer ring -->
    <circle cx="0" cy="-80" r="3" fill="black"/>
    <circle cx="15" cy="-78" r="3" fill="black"/>
    <circle cx="30" cy="-73" r="3" fill="black"/>
    <circle cx="43" cy="-65" r="3" fill="black"/>
    <circle cx="55" cy="-55" r="3" fill="black"/>
    <circle cx="65" cy="-43" r="3" fill="black"/>
    <circle cx="73" cy="-30" r="3" fill="black"/>
    <circle cx="78" cy="-15" r="3" fill="black"/>
    <circle cx="80" cy="0" r="3" fill="black"/>
    <circle cx="78" cy="15" r="3" fill="black"/>
    <circle cx="73" cy="30" r="3" fill="black"/>
    <circle cx="65" cy="43" r="3" fill="black"/>
    <circle cx="55" cy="55" r="3" fill="black"/>
    <circle cx="43" cy="65" r="3" fill="black"/>
    <circle cx="30" cy="73" r="3" fill="black"/>
    <circle cx="15" cy="78" r="3" fill="black"/>
    <circle cx="0" cy="80" r="3" fill="black"/>
    <circle cx="-15" cy="78" r="3" fill="black"/>
    <circle cx="-30" cy="73" r="3" fill="black"/>
    <circle cx="-43" cy="65" r="3" fill="black"/>
    <circle cx="-55" cy="55" r="3" fill="black"/>
    <circle cx="-65" cy="43" r="3" fill="black"/>
    <circle cx="-73" cy="30" r="3" fill="black"/>
    <circle cx="-78" cy="15" r="3" fill="black"/>
    <circle cx="-80" cy="0" r="3" fill="black"/>
    <circle cx="-78" cy="-15" r="3" fill="black"/>
    <circle cx="-73" cy="-30" r="3" fill="black"/>
    <circle cx="-65" cy="-43" r="3" fill="black"/>
    <circle cx="-55" cy="-55" r="3" fill="black"/>
    <circle cx="-43" cy="-65" r="3" fill="black"/>
    <circle cx="-30" cy="-73" r="3" fill="black"/>
    <circle cx="-15" cy="-78" r="3" fill="black"/>
    
    <!-- Middle ring -->
    <circle cx="0" cy="-60" r="2.5" fill="black"/>
    <circle cx="12" cy="-58" r="2.5" fill="black"/>
    <circle cx="23" cy="-54" r="2.5" fill="black"/>
    <circle cx="33" cy="-48" r="2.5" fill="black"/>
    <circle cx="42" cy="-42" r="2.5" fill="black"/>
    <circle cx="48" cy="-33" r="2.5" fill="black"/>
    <circle cx="54" cy="-23" r="2.5" fill="black"/>
    <circle cx="58" cy="-12" r="2.5" fill="black"/>
    <circle cx="60" cy="0" r="2.5" fill="black"/>
    <circle cx="58" cy="12" r="2.5" fill="black"/>
    <circle cx="54" cy="23" r="2.5" fill="black"/>
    <circle cx="48" cy="33" r="2.5" fill="black"/>
    <circle cx="42" cy="42" r="2.5" fill="black"/>
    <circle cx="33" cy="48" r="2.5" fill="black"/>
    <circle cx="23" cy="54" r="2.5" fill="black"/>
    <circle cx="12" cy="58" r="2.5" fill="black"/>
    <circle cx="0" cy="60" r="2.5" fill="black"/>
    <circle cx="-12" cy="58" r="2.5" fill="black"/>
    <circle cx="-23" cy="54" r="2.5" fill="black"/>
    <circle cx="-33" cy="48" r="2.5" fill="black"/>
    <circle cx="-42" cy="42" r="2.5" fill="black"/>
    <circle cx="-48" cy="33" r="2.5" fill="black"/>
    <circle cx="-54" cy="23" r="2.5" fill="black"/>
    <circle cx="-58" cy="12" r="2.5" fill="black"/>
    <circle cx="-60" cy="0" r="2.5" fill="black"/>
    <circle cx="-58" cy="-12" r="2.5" fill="black"/>
    <circle cx="-54" cy="-23" r="2.5" fill="black"/>
    <circle cx="-48" cy="-33" r="2.5" fill="black"/>
    <circle cx="-42" cy="-42" r="2.5" fill="black"/>
    <circle cx="-33" cy="-48" r="2.5" fill="black"/>
    <circle cx="-23" cy="-54" r="2.5" fill="black"/>
    <circle cx="-12" cy="-58" r="2.5" fill="black"/>
    
    <!-- Inner ring -->
    <circle cx="0" cy="-40" r="2" fill="black"/>
    <circle cx="8" cy="-39" r="2" fill="black"/>
    <circle cx="15" cy="-36" r="2" fill="black"/>
    <circle cx="22" cy="-32" r="2" fill="black"/>
    <circle cx="28" cy="-28" r="2" fill="black"/>
    <circle cx="32" cy="-22" r="2" fill="black"/>
    <circle cx="36" cy="-15" r="2" fill="black"/>
    <circle cx="39" cy="-8" r="2" fill="black"/>
    <circle cx="40" cy="0" r="2" fill="black"/>
    <circle cx="39" cy="8" r="2" fill="black"/>
    <circle cx="36" cy="15" r="2" fill="black"/>
    <circle cx="32" cy="22" r="2" fill="black"/>
    <circle cx="28" cy="28" r="2" fill="black"/>
    <circle cx="22" cy="32" r="2" fill="black"/>
    <circle cx="15" cy="36" r="2" fill="black"/>
    <circle cx="8" cy="39" r="2" fill="black"/>
    <circle cx="0" cy="40" r="2" fill="black"/>
    <circle cx="-8" cy="39" r="2" fill="black"/>
    <circle cx="-15" cy="36" r="2" fill="black"/>
    <circle cx="-22" cy="32" r="2" fill="black"/>
    <circle cx="-28" cy="28" r="2" fill="black"/>
    <circle cx="-32" cy="22" r="2" fill="black"/>
    <circle cx="-36" cy="15" r="2" fill="black"/>
    <circle cx="-39" cy="8" r="2" fill="black"/>
    <circle cx="-40" cy="0" r="2" fill="black"/>
    <circle cx="-39" cy="-8" r="2" fill="black"/>
    <circle cx="-36" cy="-15" r="2" fill="black"/>
    <circle cx="-32" cy="-22" r="2" fill="black"/>
    <circle cx="-28" cy="-28" r="2" fill="black"/>
    <circle cx="-22" cy="-32" r="2" fill="black"/>
    <circle cx="-15" cy="-36" r="2" fill="black"/>
    <circle cx="-8" cy="-39" r="2" fill="black"/>
    
    <!-- Center ring -->
    <circle cx="0" cy="-20" r="1.5" fill="black"/>
    <circle cx="4" cy="-19" r="1.5" fill="black"/>
    <circle cx="8" cy="-18" r="1.5" fill="black"/>
    <circle cx="11" cy="-16" r="1.5" fill="black"/>
    <circle cx="14" cy="-14" r="1.5" fill="black"/>
    <circle cx="16" cy="-11" r="1.5" fill="black"/>
    <circle cx="18" cy="-8" r="1.5" fill="black"/>
    <circle cx="19" cy="-4" r="1.5" fill="black"/>
    <circle cx="20" cy="0" r="1.5" fill="black"/>
    <circle cx="19" cy="4" r="1.5" fill="black"/>
    <circle cx="18" cy="8" r="1.5" fill="black"/>
    <circle cx="16" cy="11" r="1.5" fill="black"/>
    <circle cx="14" cy="14" r="1.5" fill="black"/>
    <circle cx="11" cy="16" r="1.5" fill="black"/>
    <circle cx="8" cy="18" r="1.5" fill="black"/>
    <circle cx="4" cy="19" r="1.5" fill="black"/>
    <circle cx="0" cy="20" r="1.5" fill="black"/>
    <circle cx="-4" cy="19" r="1.5" fill="black"/>
    <circle cx="-8" cy="18" r="1.5" fill="black"/>
    <circle cx="-11" cy="16" r="1.5" fill="black"/>
    <circle cx="-14" cy="14" r="1.5" fill="black"/>
    <circle cx="-16" cy="11" r="1.5" fill="black"/>
    <circle cx="-18" cy="8" r="1.5" fill="black"/>
    <circle cx="-19" cy="4" r="1.5" fill="black"/>
    <circle cx="-20" cy="0" r="1.5" fill="black"/>
    <circle cx="-19" cy="-4" r="1.5" fill="black"/>
    <circle cx="-18" cy="-8" r="1.5" fill="black"/>
    <circle cx="-16" cy="-11" r="1.5" fill="black"/>
    <circle cx="-14" cy="-14" r="1.5" fill="black"/>
    <circle cx="-11" cy="-16" r="1.5" fill="black"/>
    <circle cx="-8" cy="-18" r="1.5" fill="black"/>
    <circle cx="-4" cy="-19" r="1.5" fill="black"/>
  </g>
</svg>
